<svg id="Sair" xmlns="http://www.w3.org/2000/svg" width="32" height="32" viewBox="0 0 32 32">
  <g id="Exit_Icon" transform="translate(87.295 -511.595)">
    <path id="Caminho_191" data-name="Caminho 191" d="M-54.522,537.718V518.385a.472.472,0,0,0-.458-.485H-70.87a.472.472,0,0,0-.458.485v5.174a.473.473,0,0,0,.458.486h2.77a.473.473,0,0,0,.459-.486v-1.754h9.433V534.3h-9.433v-1.9a.472.472,0,0,0-.459-.485h-2.77a.472.472,0,0,0-.458.485v5.318a.473.473,0,0,0,.458.485h15.89A.473.473,0,0,0-54.522,537.718Zm-15.89-.486v-4.345h1.853v1.9a.473.473,0,0,0,.458.486h10.35a.473.473,0,0,0,.459-.486V521.32a.472.472,0,0,0-.459-.486H-68.1a.473.473,0,0,0-.458.486v1.754h-1.853v-4.2h14.973v18.361Z" transform="translate(-3.951 0)" fill="#aeaeae"/>
    <path id="Caminho_192" data-name="Caminho 192" d="M-70.308,533.318v-2.789a.545.545,0,0,0-.545-.546h-6.325v-2.765a.544.544,0,0,0-.3-.488.544.544,0,0,0-.571.051l-6.174,4.635a.546.546,0,0,0-.218.436.546.546,0,0,0,.218.436l6.174,4.635a.544.544,0,0,0,.571.052.544.544,0,0,0,.3-.488v-2.625h6.325A.545.545,0,0,0-70.308,533.318Zm-12.681-1.464,4.72-3.544v2.22a.545.545,0,0,0,.545.545H-71.4v1.7h-6.326a.545.545,0,0,0-.545.546V535.4Z" transform="translate(0 -3.871)" fill="#aeaeae"/>
  </g>
  <rect id="Click_Area" data-name="Click Area" width="32" height="32" fill="none"/>
</svg>
