<svg id="Produtos" xmlns="http://www.w3.org/2000/svg" width="32" height="32" viewBox="0 0 32 32">
  <g id="Produtos-2" data-name="Produtos" transform="translate(150.406 -649.983)">
    <path id="Caminho_185" data-name="Caminho 185" d="M-129.892,678.971h0a.463.463,0,0,0,.316-.125l4.919-4.639a.453.453,0,0,0,.14-.331.531.531,0,0,0,.079-.276V656.417a1.944,1.944,0,0,0-1.942-1.942H-142.76a1.944,1.944,0,0,0-1.941,1.942v20.738a1.944,1.944,0,0,0,1.941,1.942h12.524A.531.531,0,0,0-129.892,678.971Zm.461-1.523v-1.782a1.335,1.335,0,0,1,1.333-1.334h1.971Zm-1.344.572H-142.76a.865.865,0,0,1-.864-.865V656.417a.865.865,0,0,1,.864-.865h16.381a.865.865,0,0,1,.864.865v16.643h-2.517a2.746,2.746,0,0,0-2.743,2.742Z" transform="translate(0)" fill="#aeaeae"/>
    <path id="Caminho_186" data-name="Caminho 186" d="M-139.458,663.107h11.872a.54.54,0,0,0,.54-.539V661.6a.539.539,0,0,0-.54-.539h-11.872a.539.539,0,0,0-.54.539v.966A.54.54,0,0,0-139.458,663.107Zm.107-1.4h11.657v.75h-11.657Z" transform="translate(-1.046 -1.466)" fill="#aeaeae"/>
    <path id="Caminho_187" data-name="Caminho 187" d="M-139.458,667.453h11.872a.54.54,0,0,0,.54-.54v-.966a.539.539,0,0,0-.54-.539h-11.872a.539.539,0,0,0-.54.539v.966A.54.54,0,0,0-139.458,667.453Zm.107-1.4h11.657v.75h-11.657Z" transform="translate(-1.046 -2.433)" fill="#aeaeae"/>
    <path id="Caminho_188" data-name="Caminho 188" d="M-127.047,671.26v-.966a.54.54,0,0,0-.54-.54h-11.872a.54.54,0,0,0-.54.54v.966a.539.539,0,0,0,.54.539h11.872A.539.539,0,0,0-127.047,671.26Zm-.647-.108h-11.657v-.75h11.657Z" transform="translate(-1.046 -3.4)" fill="#aeaeae"/>
  </g>
  <rect id="Click_Area" data-name="Click Area" width="32" height="32" fill="none"/>
</svg>
